<svg version="1.1" id="Layer_16" xmlns="http://www.w3.org/2000/svg" xmlns:xlink="http://www.w3.org/1999/xlink" x="0px" y="0px" width="1125px" height="2436px" viewBox="0 0 1125 2436" style="enable-background:new 0 0 1125 2436;" xml:space="preserve">
<path d="M748.1,631.2c0-25,4.4-21.8-24.8-7.8c-1.8,0.9-0.5,7.1-1.6,26.3c-0.1,1.3,1,1.5,4.2,2.9c-3,1.5-3.8,1.6-3.8,2.8
    c0,15.2-0.2,11.3,0.8,18.5c0.4,2.7,2.2,1.1,24-9.8c2.2-1,1.7,0.7,0.9-18.8c7.6-4,6.3-1.8,6.3-10.2C753.9,634,753.5,634,748.1,631.2z
     M742.1,617.6c1.5-1.1,2.4-1.6,2.9-1.8v14l-2.9-1.3V617.6z M725.4,625.8l13.7-6.6v9.4l-14,6.8L725.4,625.8z M725.1,638.8l15.6-7.6
    c6.3,2.8,4.4,1.9,8.5,4l-19.9,9.7l-4.1-2.2V638.8z M724.8,648.9l0.2-3l2.7,1.5v2.8L724.8,648.9z M725.1,656.4c0,0,12.9-6.3,14-6.9
    c0,0,0,9.7,0,9.7l-14,6.6V656.4z M725.5,671.6l-0.3-2.5l15.4-7.2l2.2,1L725.5,671.6z M742.1,659.2v-9.7c0-0.5-0.2-1.2,0.2-1.6
    c0.6-0.6,1.7-0.6,2.4-1.1c0.2,4.6,0.4,9.2,0.6,13.9C744.3,660.3,743.2,659.7,742.1,659.2z M751,640.3c0,0-20.3,10.1-20.3,10.1v-2.9
    l20.3-9.9V640.3z"/>
</svg>
